<svg width="40" height="40" viewBox="0 0 40 40" fill="none" xmlns="http://www.w3.org/2000/svg">
<rect width="40" height="40" fill="#F5F5F5"/>
<g clip-path="url(#clip0_0_1)">
<rect width="1600" height="1200" transform="translate(-822 -274)" fill="#F7FAFF"/>
<g filter="url(#filter0_dddddd_0_1)">
<mask id="mask0_0_1" style="mask-type:alpha" maskUnits="userSpaceOnUse" x="-742" y="-161" width="1440" height="990">
<path d="M-742 -161H698V813C698 818.601 698 821.401 696.91 823.54C695.951 825.422 694.422 826.951 692.54 827.91C690.401 829 687.601 829 682 829H-726C-731.601 829 -734.401 829 -736.54 827.91C-738.422 826.951 -739.951 825.422 -740.91 823.54C-742 821.401 -742 818.601 -742 813V-161Z" fill="white"/>
</mask>
<g mask="url(#mask0_0_1)">
<path d="M-742 -161H698V813C698 818.601 698 821.401 696.91 823.54C695.951 825.422 694.422 826.951 692.54 827.91C690.401 829 687.601 829 682 829H-726C-731.601 829 -734.401 829 -736.54 827.91C-738.422 826.951 -739.951 825.422 -740.91 823.54C-742 821.401 -742 818.601 -742 813V-161Z" fill="white"/>
</g>
<path d="M-741.75 -197C-741.75 -199.804 -741.75 -201.893 -741.615 -203.548C-741.48 -205.2 -741.211 -206.398 -740.687 -207.426C-739.753 -209.261 -738.261 -210.753 -736.426 -211.687C-735.398 -212.211 -734.2 -212.48 -732.548 -212.615C-730.893 -212.75 -728.804 -212.75 -726 -212.75H682C684.804 -212.75 686.893 -212.75 688.548 -212.615C690.2 -212.48 691.398 -212.211 692.426 -211.687C694.261 -210.753 695.753 -209.261 696.687 -207.426C697.211 -206.398 697.48 -205.2 697.615 -203.548C697.75 -201.893 697.75 -199.804 697.75 -197V812C697.75 814.804 697.75 816.893 697.615 818.548C697.48 820.2 697.211 821.398 696.687 822.426C695.753 824.261 694.261 825.753 692.426 826.687C691.398 827.211 690.2 827.48 688.548 827.615C686.893 827.75 684.804 827.75 682 827.75H-726C-728.804 827.75 -730.893 827.75 -732.548 827.615C-734.2 827.48 -735.398 827.211 -736.426 826.687C-738.261 825.753 -739.753 824.261 -740.687 822.426C-741.211 821.398 -741.48 820.2 -741.615 818.548C-741.75 816.893 -741.75 814.804 -741.75 812V-197Z" stroke="white" stroke-opacity="0.1" stroke-width="0.5"/>
<path d="M-741.133 -207.653C-741.699 -206.543 -741.975 -205.271 -742.113 -203.588C-742.25 -201.911 -742.25 -199.802 -742.25 -197.012V-197V812V812.012C-742.25 814.802 -742.25 816.911 -742.113 818.588C-741.975 820.271 -741.699 821.543 -741.133 822.653C-740.15 824.582 -738.582 826.15 -736.653 827.133C-735.543 827.699 -734.271 827.975 -732.588 828.113C-730.911 828.25 -728.804 828.25 -726.015 828.25H-726H682H682.015C684.804 828.25 686.911 828.25 688.588 828.113C690.271 827.975 691.543 827.699 692.653 827.133C694.582 826.15 696.15 824.582 697.133 822.653C697.699 821.543 697.975 820.271 698.113 818.588C698.25 816.911 698.25 814.804 698.25 812.015V812V-197V-197.015C698.25 -199.804 698.25 -201.911 698.113 -203.588C697.975 -205.271 697.699 -206.543 697.133 -207.653C696.15 -209.582 694.582 -211.15 692.653 -212.133C691.543 -212.699 690.271 -212.975 688.588 -213.113C686.911 -213.25 684.802 -213.25 682.012 -213.25H682H-726H-726.012C-728.802 -213.25 -730.911 -213.25 -732.588 -213.113C-734.271 -212.975 -735.543 -212.699 -736.653 -212.133C-738.582 -211.15 -740.15 -209.582 -741.133 -207.653Z" stroke="#9E9E9E" stroke-width="0.5"/>
</g>
<g clip-path="url(#clip1_0_1)">
<rect width="1440" height="990" transform="translate(-742 -160)" fill="white"/>
<rect x="-491" y="-52" width="797" height="1016" fill="white"/>
<g filter="url(#filter1_dd_0_1)">
<rect x="-239" y="-21" width="193" height="154" rx="10" fill="#F5FFFC"/>
</g>
<g filter="url(#filter2_dddddd_0_1)">
<rect x="-21" y="-21" width="193" height="154" rx="10" fill="#FFF9F0"/>
</g>
<path opacity="0.3" fill-rule="evenodd" clip-rule="evenodd" d="M5 33.5C5 34.3284 5.67157 35 6.5 35H36.8333C37.6618 35 38.3333 34.3284 38.3333 33.5V13.1667C38.3333 12.3382 37.6618 11.6667 36.8333 11.6667H18.3333L13.7727 7.106C13.4914 6.82469 13.1098 6.66666 12.712 6.66666H6.5C5.67157 6.66666 5 7.33823 5 8.16666V33.5Z" fill="#FDBC64"/>
<path fill-rule="evenodd" clip-rule="evenodd" d="M1.6667 30.1667C1.6667 30.9951 2.33827 31.6667 3.1667 31.6667H33.5C34.3285 31.6667 35 30.9951 35 30.1667V9.83334C35 9.00492 34.3285 8.33334 33.5 8.33334H15L10.4394 3.77268C10.1581 3.49138 9.77654 3.33334 9.37871 3.33334H3.1667C2.33827 3.33334 1.6667 4.00492 1.6667 4.83334V30.1667Z" fill="#FDBC64"/>
<g filter="url(#filter3_dd_0_1)">
</g>
</g>
</g>
<defs>
<filter id="filter0_dddddd_0_1" x="-823" y="-215.296" width="1602" height="1224.3" filterUnits="userSpaceOnUse" color-interpolation-filters="sRGB">
<feFlood flood-opacity="0" result="BackgroundImageFix"/>
<feColorMatrix in="SourceAlpha" type="matrix" values="0 0 0 0 0 0 0 0 0 0 0 0 0 0 0 0 0 0 127 0" result="hardAlpha"/>
<feOffset dy="1.85185"/>
<feGaussianBlur stdDeviation="1.57407"/>
<feColorMatrix type="matrix" values="0 0 0 0 0.14902 0 0 0 0 0.25098 0 0 0 0 0.513726 0 0 0 0.0168519 0"/>
<feBlend mode="normal" in2="BackgroundImageFix" result="effect1_dropShadow_0_1"/>
<feColorMatrix in="SourceAlpha" type="matrix" values="0 0 0 0 0 0 0 0 0 0 0 0 0 0 0 0 0 0 127 0" result="hardAlpha"/>
<feOffset dy="8.14815"/>
<feGaussianBlur stdDeviation="3.25926"/>
<feColorMatrix type="matrix" values="0 0 0 0 0.14902 0 0 0 0 0.25098 0 0 0 0 0.513726 0 0 0 0.0274815 0"/>
<feBlend mode="normal" in2="effect1_dropShadow_0_1" result="effect2_dropShadow_0_1"/>
<feColorMatrix in="SourceAlpha" type="matrix" values="0 0 0 0 0 0 0 0 0 0 0 0 0 0 0 0 0 0 127 0" result="hardAlpha"/>
<feOffset dy="20"/>
<feGaussianBlur stdDeviation="6.5"/>
<feColorMatrix type="matrix" values="0 0 0 0 0.14902 0 0 0 0 0.25098 0 0 0 0 0.513726 0 0 0 0.035 0"/>
<feBlend mode="normal" in2="effect2_dropShadow_0_1" result="effect3_dropShadow_0_1"/>
<feColorMatrix in="SourceAlpha" type="matrix" values="0 0 0 0 0 0 0 0 0 0 0 0 0 0 0 0 0 0 127 0" result="hardAlpha"/>
<feOffset dy="38.5185"/>
<feGaussianBlur stdDeviation="12.7407"/>
<feColorMatrix type="matrix" values="0 0 0 0 0.14902 0 0 0 0 0.25098 0 0 0 0 0.513726 0 0 0 0.0425185 0"/>
<feBlend mode="normal" in2="effect3_dropShadow_0_1" result="effect4_dropShadow_0_1"/>
<feColorMatrix in="SourceAlpha" type="matrix" values="0 0 0 0 0 0 0 0 0 0 0 0 0 0 0 0 0 0 127 0" result="hardAlpha"/>
<feOffset dy="64.8148"/>
<feGaussianBlur stdDeviation="23.4259"/>
<feColorMatrix type="matrix" values="0 0 0 0 0.14902 0 0 0 0 0.25098 0 0 0 0 0.513726 0 0 0 0.0531481 0"/>
<feBlend mode="normal" in2="effect4_dropShadow_0_1" result="effect5_dropShadow_0_1"/>
<feColorMatrix in="SourceAlpha" type="matrix" values="0 0 0 0 0 0 0 0 0 0 0 0 0 0 0 0 0 0 127 0" result="hardAlpha"/>
<feOffset dy="100"/>
<feGaussianBlur stdDeviation="40"/>
<feColorMatrix type="matrix" values="0 0 0 0 0.149479 0 0 0 0 0.251125 0 0 0 0 0.5125 0 0 0 0.07 0"/>
<feBlend mode="normal" in2="effect5_dropShadow_0_1" result="effect6_dropShadow_0_1"/>
<feBlend mode="normal" in="SourceGraphic" in2="effect6_dropShadow_0_1" result="shape"/>
</filter>
<filter id="filter1_dd_0_1" x="-319" y="-21" width="353" height="334" filterUnits="userSpaceOnUse" color-interpolation-filters="sRGB">
<feFlood flood-opacity="0" result="BackgroundImageFix"/>
<feColorMatrix in="SourceAlpha" type="matrix" values="0 0 0 0 0 0 0 0 0 0 0 0 0 0 0 0 0 0 127 0" result="hardAlpha"/>
<feOffset dy="64.8148"/>
<feGaussianBlur stdDeviation="23.4259"/>
<feColorMatrix type="matrix" values="0 0 0 0 0.403922 0 0 0 0 0.811765 0 0 0 0 0.92549 0 0 0 0.0531481 0"/>
<feBlend mode="normal" in2="BackgroundImageFix" result="effect1_dropShadow_0_1"/>
<feColorMatrix in="SourceAlpha" type="matrix" values="0 0 0 0 0 0 0 0 0 0 0 0 0 0 0 0 0 0 127 0" result="hardAlpha"/>
<feOffset dy="100"/>
<feGaussianBlur stdDeviation="40"/>
<feColorMatrix type="matrix" values="0 0 0 0 0.403922 0 0 0 0 0.811765 0 0 0 0 0.92549 0 0 0 0.07 0"/>
<feBlend mode="normal" in2="effect1_dropShadow_0_1" result="effect2_dropShadow_0_1"/>
<feBlend mode="normal" in="SourceGraphic" in2="effect2_dropShadow_0_1" result="shape"/>
</filter>
<filter id="filter2_dddddd_0_1" x="-101" y="-22.2963" width="353" height="335.296" filterUnits="userSpaceOnUse" color-interpolation-filters="sRGB">
<feFlood flood-opacity="0" result="BackgroundImageFix"/>
<feColorMatrix in="SourceAlpha" type="matrix" values="0 0 0 0 0 0 0 0 0 0 0 0 0 0 0 0 0 0 127 0" result="hardAlpha"/>
<feOffset dy="1.85185"/>
<feGaussianBlur stdDeviation="1.57407"/>
<feColorMatrix type="matrix" values="0 0 0 0 0.992157 0 0 0 0 0.513726 0 0 0 0 0.258824 0 0 0 0.01 0"/>
<feBlend mode="normal" in2="BackgroundImageFix" result="effect1_dropShadow_0_1"/>
<feColorMatrix in="SourceAlpha" type="matrix" values="0 0 0 0 0 0 0 0 0 0 0 0 0 0 0 0 0 0 127 0" result="hardAlpha"/>
<feOffset dy="8.14815"/>
<feGaussianBlur stdDeviation="3.25926"/>
<feColorMatrix type="matrix" values="0 0 0 0 0.992157 0 0 0 0 0.513726 0 0 0 0 0.258824 0 0 0 0.0157037 0"/>
<feBlend mode="normal" in2="effect1_dropShadow_0_1" result="effect2_dropShadow_0_1"/>
<feColorMatrix in="SourceAlpha" type="matrix" values="0 0 0 0 0 0 0 0 0 0 0 0 0 0 0 0 0 0 127 0" result="hardAlpha"/>
<feOffset dy="20"/>
<feGaussianBlur stdDeviation="6.5"/>
<feColorMatrix type="matrix" values="0 0 0 0 0.992157 0 0 0 0 0.513726 0 0 0 0 0.258824 0 0 0 0.02 0"/>
<feBlend mode="normal" in2="effect2_dropShadow_0_1" result="effect3_dropShadow_0_1"/>
<feColorMatrix in="SourceAlpha" type="matrix" values="0 0 0 0 0 0 0 0 0 0 0 0 0 0 0 0 0 0 127 0" result="hardAlpha"/>
<feOffset dy="38.5185"/>
<feGaussianBlur stdDeviation="12.7407"/>
<feColorMatrix type="matrix" values="0 0 0 0 0.992157 0 0 0 0 0.513726 0 0 0 0 0.258824 0 0 0 0.0242963 0"/>
<feBlend mode="normal" in2="effect3_dropShadow_0_1" result="effect4_dropShadow_0_1"/>
<feColorMatrix in="SourceAlpha" type="matrix" values="0 0 0 0 0 0 0 0 0 0 0 0 0 0 0 0 0 0 127 0" result="hardAlpha"/>
<feOffset dy="64.8148"/>
<feGaussianBlur stdDeviation="23.4259"/>
<feColorMatrix type="matrix" values="0 0 0 0 0.992157 0 0 0 0 0.513726 0 0 0 0 0.258824 0 0 0 0.0303704 0"/>
<feBlend mode="normal" in2="effect4_dropShadow_0_1" result="effect5_dropShadow_0_1"/>
<feColorMatrix in="SourceAlpha" type="matrix" values="0 0 0 0 0 0 0 0 0 0 0 0 0 0 0 0 0 0 127 0" result="hardAlpha"/>
<feOffset dy="100"/>
<feGaussianBlur stdDeviation="40"/>
<feColorMatrix type="matrix" values="0 0 0 0 0.992157 0 0 0 0 0.513726 0 0 0 0 0.258824 0 0 0 0.04 0"/>
<feBlend mode="normal" in2="effect5_dropShadow_0_1" result="effect6_dropShadow_0_1"/>
<feBlend mode="normal" in="SourceGraphic" in2="effect6_dropShadow_0_1" result="shape"/>
</filter>
<filter id="filter3_dd_0_1" x="-758.196" y="-175.427" width="1466.89" height="1029.89" filterUnits="userSpaceOnUse" color-interpolation-filters="sRGB">
<feFlood flood-opacity="0" result="BackgroundImageFix"/>
<feColorMatrix in="SourceAlpha" type="matrix" values="0 0 0 0 0 0 0 0 0 0 0 0 0 0 0 0 0 0 127 0" result="hardAlpha"/>
<feOffset dx="-0.625253" dy="0.231307"/>
<feGaussianBlur stdDeviation="3.24653"/>
<feColorMatrix type="matrix" values="0 0 0 0 0.780392 0 0 0 0 0.815686 0 0 0 0 1 0 0 0 0.0240741 0"/>
<feBlend mode="normal" in2="BackgroundImageFix" result="effect1_dropShadow_0_1"/>
<feColorMatrix in="SourceAlpha" type="matrix" values="0 0 0 0 0 0 0 0 0 0 0 0 0 0 0 0 0 0 127 0" result="hardAlpha"/>
<feOffset dx="-2.75111" dy="1.01775"/>
<feGaussianBlur stdDeviation="6.72222"/>
<feColorMatrix type="matrix" values="0 0 0 0 0.780392 0 0 0 0 0.815686 0 0 0 0 1 0 0 0 0.0392593 0"/>
<feBlend mode="normal" in2="effect1_dropShadow_0_1" result="effect2_dropShadow_0_1"/>
<feBlend mode="normal" in="SourceGraphic" in2="effect2_dropShadow_0_1" result="shape"/>
</filter>
<clipPath id="clip0_0_1">
<rect width="1600" height="1200" fill="white" transform="translate(-822 -274)"/>
</clipPath>
<clipPath id="clip1_0_1">
<rect width="1440" height="990" fill="white" transform="translate(-742 -160)"/>
</clipPath>
</defs>
</svg>
